<svg width="21" height="20" viewBox="0 0 21 20" fill="none" xmlns="http://www.w3.org/2000/svg">
<g id="filter-funnel-02">
<path id="Icon" d="M3.32125 4.72239C2.69097 4.01796 2.37583 3.66574 2.36394 3.3664C2.35361 3.10636 2.46536 2.85643 2.66603 2.69074C2.89704 2.5 3.36966 2.5 4.31491 2.5H16.684C17.6293 2.5 18.1019 2.5 18.3329 2.69074C18.5336 2.85643 18.6453 3.10636 18.635 3.3664C18.6231 3.66574 18.308 4.01796 17.6777 4.72239L12.9225 10.037C12.7968 10.1774 12.734 10.2477 12.6892 10.3276C12.6495 10.3984 12.6203 10.4747 12.6027 10.554C12.5828 10.6435 12.5828 10.7377 12.5828 10.9261V15.382C12.5828 15.5449 12.5828 15.6264 12.5565 15.6969C12.5333 15.7591 12.4955 15.8149 12.4463 15.8596C12.3907 15.9102 12.315 15.9404 12.1637 16.001L9.33039 17.1343C9.0241 17.2568 8.87096 17.3181 8.74802 17.2925C8.64052 17.2702 8.54617 17.2063 8.48551 17.1148C8.41613 17.0101 8.41613 16.8452 8.41613 16.5153V10.9261C8.41613 10.7377 8.41613 10.6435 8.39623 10.554C8.37858 10.4747 8.34943 10.3984 8.3097 10.3276C8.26491 10.2477 8.20209 10.1774 8.07645 10.037L3.32125 4.72239Z" stroke="#344054" stroke-width="1.66667" stroke-linecap="round" stroke-linejoin="round"/>
</g>
</svg>
